<?xml version="1.0" encoding="UTF-8"?>
<svg xmlns="http://www.w3.org/2000/svg" viewBox="0 0 860 1040" data-rmp-canonical="ready" data-rmp-geometry="clean">
<g data-rmp-part="shadow" data-rmp-pivot="300,980" data-rmp-geometry="clean"><ellipse cx="300" cy="980" rx="148" ry="20" fill="#1a1714" opacity="0.18" data-rmp-fill="shadow"/></g>
<g data-rmp-part="body" data-rmp-pivot="300,520" data-rmp-geometry="clean"><rect x="190" y="300" width="220" height="410" rx="40" ry="28" fill="#ee682a" stroke="#111316" stroke-width="8" data-rmp-fill="body"/><rect x="198" y="312" width="204" height="10" rx="4" fill="#6f747b" stroke="#111316" stroke-width="3" data-rmp-fill="metal"/><rect x="198" y="688" width="204" height="12" rx="4" fill="#6f747b" stroke="#111316" stroke-width="3" data-rmp-fill="metal"/><rect x="214" y="248" width="172" height="62" rx="28" fill="#111316" data-rmp-fill="ink"/><ellipse cx="300" cy="252" rx="86" ry="26" fill="#111316" data-rmp-fill="ink"/><rect x="278" y="168" width="44" height="86" rx="14" fill="#111316" data-rmp-fill="ink"/><ellipse cx="300" cy="166" rx="26" ry="12" fill="#111316" data-rmp-fill="ink"/><circle cx="318" cy="196" r="11" fill="#ee682a" stroke="#111316" stroke-width="3" data-rmp-fill="body"/></g>
<g data-rmp-part="eyes" data-rmp-pivot="300,458" data-rmp-geometry="clean"><ellipse cx="256" cy="460" rx="40" ry="50" fill="#fffef8" stroke="#111316" stroke-width="6" data-rmp-fill="white"/><path d="M282.00 464.00A24.00 30.00 0 1 1 234.00 464.00A24.00 30.00 0 1 1 282.00 464.00ZM258.00 464.00L259.92 434.60L281.52 461.60Z" fill="#111316" fill-rule="evenodd" data-rmp-fill="ink"/><ellipse cx="348" cy="452" rx="40" ry="50" fill="#fffef8" stroke="#111316" stroke-width="6" data-rmp-fill="white"/><path d="M374.00 456.00A24.00 30.00 0 1 1 326.00 456.00A24.00 30.00 0 1 1 374.00 456.00ZM350.00 456.00L348.08 426.60L326.48 453.60Z" fill="#111316" fill-rule="evenodd" data-rmp-fill="ink"/><path d="M234.00 396.00C246.00 386.00 260.00 387.00 272.00 394.00" fill="none" stroke="#111316" stroke-width="5" stroke-linecap="round" data-rmp-fill="ink"/><path d="M370.00 388.00C358.00 378.00 344.00 379.00 332.00 386.00" fill="none" stroke="#111316" stroke-width="5" stroke-linecap="round" data-rmp-fill="ink"/></g>
<g data-rmp-part="spray" data-rmp-pivot="332,196" data-rmp-geometry="clean"/>
</svg>
